# xmcd CD database file
#
# Track frame offsets:
#	150
#	20240
#	46030
#	66110
#
# Disc length: 1221 seconds
#
# Revision: 0
# Processed by: cddbd v1.5.1PL2 Copyright (c) Steve Scherf et al.
# Submitted via: CDex 1.51
#
DISCID=2e04c304
DTITLE=鈴木結女 - 土曜日の落書き／二人の風
DYEAR=1993
DGENRE=JPop
TTITLE0=土曜日の落書き
TTITLE1=二人の風
TTITLE2=土曜日の落書き（オリジナル・カラオケ）
TTITLE3=二人の風（オリジナル・カラオケ）
EXTD=YEAR: 1993
EXTT0=
EXTT1=
EXTT2=
EXTT3=
PLAYORDER=
